<svg width="248" height="239" viewBox="0 0 248 239" fill="none" xmlns="http://www.w3.org/2000/svg">
<path d="M150.344 65.8673C176.706 75.6551 205.857 78.3406 216.94 93.0102C227.778 107.783 220.7 134.218 207.607 155.966C194.268 177.818 175.066 194.661 153.405 202.227C131.745 209.794 108.117 207.878 87.0952 200.483C65.8278 193.192 47.7495 180.434 36.757 161.86C26.0099 143.182 22.9316 118.701 30.7774 94.7783C38.6231 70.8559 57.6382 47.3895 78.9626 43.8307C100.195 40.0529 123.829 56.4017 150.344 65.8673Z" fill="#576CA8"/>
<path d="M72.7204 127.51L74.0254 130.99V148.477L72.7204 151C65.7604 151.087 60.9754 146.389 59.3224 141.778V151C59.3224 159.352 56.1034 167.965 46.7074 174.229L20.7814 191.629V167.269L45.3154 157.264C52.9714 154.132 57.0604 147.607 57.7564 141.517V116.809H59.3224C59.6704 120.898 65.8474 127.51 72.7204 127.51ZM71.6498 148.912V130.12L72.6938 127.51C79.8278 127.51 84.7868 120.202 84.7868 116.113L84.8738 107.5H86.5268L86.6138 116.374V116.113C86.6138 120.202 91.5728 127.51 98.7068 127.51L99.6638 129.685V149.434L98.7068 151C90.5288 151.087 87.1358 144.649 85.7438 139.516C84.2648 144.649 80.8718 151.087 72.6938 151L71.6498 148.912ZM69.7358 164.398L77.8268 172.489L85.9178 164.398L77.8268 156.307L69.7358 164.398ZM85.9178 164.398L94.0088 172.489L102.1 164.398L94.0088 156.307L85.9178 164.398ZM111.22 109.675H153.937C167.422 109.588 167.857 126.988 167.857 127.423V151H98.6919L97.8219 148.912V129.424L98.6919 127.51L166.03 127.423V127.075C165.769 122.986 161.071 123.856 153.937 123.856H107.653V106.369C108.436 97.756 113.569 90.796 124.183 85.663L138.712 78.616V97.06L122.704 102.628C117.745 104.368 113.917 106.804 111.22 109.675ZM194.542 87.316L202.633 95.407L194.542 103.498L186.451 95.407L194.542 87.316ZM209.158 126.205C210.724 126.988 212.464 127.51 214.291 127.51V151C209.158 151 205.939 148.564 203.851 145.432C201.067 148.651 196.891 151 190.714 151H176.533V127.51H190.714C197.848 127.51 203.503 121.507 201.067 117.853L194.629 108.109L195.847 107.5L202.198 116.374V116.113V116.374L209.158 126.118V126.205ZM210.775 94.972L218.866 103.063L226.957 94.972L218.866 86.881L210.775 94.972ZM226.957 94.972L235.048 103.063L243.139 94.972L235.048 86.881L226.957 94.972ZM227.566 133.252C227.566 133.687 227.044 151.087 213.559 151L212.602 148.651V130.381L213.559 127.51C220.693 127.51 225.652 120.202 225.652 116.113L225.739 107.5H227.392L227.566 133.252Z" fill="white"/>
</svg>
