<svg width="18" height="18" viewBox="0 0 18 18" fill="none" xmlns="http://www.w3.org/2000/svg">
<path fill-rule="evenodd" clip-rule="evenodd" d="M9.4186 1.25581C13.4644 1.25581 16.7442 4.53559 16.7442 8.5814C16.7442 12.6272 13.4644 15.907 9.4186 15.907C5.3728 15.907 2.09302 12.6272 2.09302 8.5814C2.09302 4.53559 5.3728 1.25581 9.4186 1.25581ZM18 8.5814C18 3.84202 14.158 0 9.4186 0C4.67923 0 0.83721 3.84202 0.83721 8.5814C0.83721 10.7251 1.62324 12.6852 2.92281 14.1892L0.18391 16.9281C-0.0613022 17.1733 -0.0613022 17.5709 0.18391 17.8161C0.429123 18.0613 0.826691 18.0613 1.07191 17.8161L3.8108 15.0772C5.31482 16.3768 7.27492 17.1628 9.4186 17.1628C14.158 17.1628 18 13.3208 18 8.5814Z" fill="#666666"/>
</svg>
